<svg id="Layer_1" data-name="Layer 1" xmlns="http://www.w3.org/2000/svg" viewBox="0 0 67.8 80.58"><defs><style>.cls-1{fill:#222a35;fill-rule:evenodd;}</style></defs><title>Brain-icon</title><path class="cls-1" d="M39.37,23.66h.06a5.69,5.69,0,1,1-.06,0Zm0-3.4a9.17,9.17,0,1,0,.11,0Zm-.85-8.11h1.9v1.91a1.71,1.71,0,0,0,1.41,1.68,13.81,13.81,0,0,1,5.61,2.32,1.7,1.7,0,0,0,2.19-.19l1.35-1.35,1.35,1.35-1.35,1.35a1.7,1.7,0,0,0-.19,2.19A13.77,13.77,0,0,1,53.07,27a1.72,1.72,0,0,0,1.68,1.42h1.91v1.9H54.75a1.71,1.71,0,0,0-1.68,1.41,13.81,13.81,0,0,1-2.32,5.61,1.69,1.69,0,0,0,.19,2.18l1.35,1.36-1.35,1.35-1.35-1.36a1.71,1.71,0,0,0-2.19-.18A14,14,0,0,1,41.79,43a1.72,1.72,0,0,0-1.41,1.68v1.9h-1.9V44.7A1.71,1.71,0,0,0,37.07,43a14,14,0,0,1-5.61-2.32,1.7,1.7,0,0,0-2.18.18l-1.36,1.36-1.35-1.35,1.36-1.36a1.7,1.7,0,0,0,.18-2.18,13.81,13.81,0,0,1-2.32-5.61,1.71,1.71,0,0,0-1.68-1.41h-1.9v-1.9h1.9A1.72,1.72,0,0,0,25.79,27a13.77,13.77,0,0,1,2.32-5.6,1.7,1.7,0,0,0-.18-2.19l-1.36-1.35,1.35-1.35,1.36,1.35a1.69,1.69,0,0,0,2.18.19,13.81,13.81,0,0,1,5.61-2.32,1.71,1.71,0,0,0,1.41-1.68ZM36.77,8.74a1.71,1.71,0,0,0-1.7,1.71V13a17.39,17.39,0,0,0-4.16,1.72l-1.79-1.78a1.7,1.7,0,0,0-2.4,0L23,16.67a1.7,1.7,0,0,0,0,2.4l1.78,1.78A17.23,17.23,0,0,0,23,25H20.5a1.7,1.7,0,0,0-1.7,1.7V32a1.71,1.71,0,0,0,1.7,1.71H23a17,17,0,0,0,1.72,4.16L23,39.68a1.71,1.71,0,0,0,0,2.41l3.76,3.76a1.7,1.7,0,0,0,2.4,0l1.79-1.79a17,17,0,0,0,4.16,1.73V48.3A1.71,1.71,0,0,0,36.77,50h5.31a1.71,1.71,0,0,0,1.71-1.7h0V45.79A17,17,0,0,0,48,44.06l1.79,1.79a1.7,1.7,0,0,0,2.4,0l3.76-3.76a1.71,1.71,0,0,0,0-2.41L54.12,37.9a17.39,17.39,0,0,0,1.72-4.16h2.52a1.7,1.7,0,0,0,1.7-1.7h0V26.72a1.7,1.7,0,0,0-1.7-1.7H55.84a17.64,17.64,0,0,0-1.72-4.17l1.78-1.78a1.7,1.7,0,0,0,0-2.4l-3.76-3.76a1.7,1.7,0,0,0-2.4,0L48,14.69A17.39,17.39,0,0,0,43.79,13V10.45a1.72,1.72,0,0,0-1.71-1.71ZM38.42,3.4h0A25.93,25.93,0,0,1,64,33.7c-1.45,8-9.28,17-12.16,27.05a1.35,1.35,0,0,0-.07.44l-.3,16H22.92V66.28a1.7,1.7,0,0,0-1.7-1.7H12.64c-.13-1.2-.75-6.83-1.06-15.21a1.69,1.69,0,0,0-.91-1.44L4.4,44.63a23.26,23.26,0,0,0,2.78-3.16,22.37,22.37,0,0,0,4.56-10.23,1.78,1.78,0,0,0,.22-.66,42.41,42.41,0,0,1,1.73-9.07l0-.06,0-.1a.21.21,0,0,0,0-.06A26,26,0,0,1,38.43,3.4Zm0-3.4c-.11,0-.21.05-.32.05V0h0L37.9.08h0A29.34,29.34,0,0,0,10.52,20.23v0l0,.1s0,0,0,0h0a44.76,44.76,0,0,0-1.83,9.45,1.65,1.65,0,0,0-.09.43c-.18,3-2.12,6.47-4.1,9.13A36.79,36.79,0,0,1,.54,43.9a1.69,1.69,0,0,0-.08,2.4,1.49,1.49,0,0,0,.45.34L8.24,50.5c.37,8.59,1.11,16,1.11,16A1.71,1.71,0,0,0,11.05,68h8.46V78.87a1.71,1.71,0,0,0,1.7,1.71h32a1.71,1.71,0,0,0,1.7-1.67l.32-17.34c2.6-8.86,10.49-17.76,12.19-27.28v0a28.78,28.78,0,0,0,.42-4.9A29.33,29.33,0,0,0,39.07.12,1.73,1.73,0,0,0,38.43,0Z"/></svg>