<?xml version="1.0" encoding="utf-8"?>
<!-- Generator: Adobe Illustrator 23.0.1, SVG Export Plug-In . SVG Version: 6.00 Build 0)  -->
<svg version="1.1" id="Layer_1" xmlns="http://www.w3.org/2000/svg" xmlns:xlink="http://www.w3.org/1999/xlink" x="0px" y="0px"
	 viewBox="0 0 353.4 402.8" style="enable-background:new 0 0 353.4 402.8;" xml:space="preserve">
<style type="text/css">
	.st0{fill:#FFFFFF;}
</style>
<g>
	<path class="st0" d="M159.8,78.2c29.6,0.1,57,7.8,82,23c9.8,6,18.9,12.9,27.1,20.8c0.4,0.4,0.8,0.9,1.2,1.1
		c0.8,0.3,1.7,0.3,2.6,0.5c0-0.7,0.3-1.5,0.1-2.1c-2.1-6-5.5-11.4-9.7-16.2c-11.4-13-26.1-21.2-42.4-27.1c-2-0.7-3.4-1.8-4.4-3.6
		c-1.6-2.9-0.6-4.9,2.8-5c6.6-0.2,13.1-0.3,19.7-0.2c13.1,0.2,25.3,4.1,37.7,7.5c13,3.6,24.1,10,33.8,18.9
		c12.9,11.7,21.5,25.9,26.1,42.4c2.6,9.4,2.7,18.9,3.3,28.5c0.7,13.2,3.2,26.1,7.4,38.7c1.4,4.2,3.2,8.3,4.8,12.5
		c0.5,1.4,1.1,2.9,1.5,4.4c0.4,1.5-0.2,2.3-1.9,1.8c-9.7-3.1-19.8-3.5-29.8-4.3c-3.4-0.3-3.4-0.2-3.1,3c2.7,23.6,0.2,46.8-7.1,69.4
		c-7.1,21.7-18.4,41.2-33.9,58.4c-11.7,13-25.2,23.9-40.7,32.5c-22.3,12.4-46.3,19.2-72.1,19.9c-29.1,0.9-56.3-5.7-81.5-19.6
		c-21-11.7-38.4-27.2-52.1-46.3C7.8,304.3-2,268.3,0.4,229.2c1.4-22.1,7.1-43.1,17.2-62.9c13.1-25.9,32-47.1,57-63.2
		c22.4-14.4,47.2-22.6,74.2-24.5c1.8-0.1,3.7-0.3,5.5-0.3C156.1,78.2,158,78.2,159.8,78.2z M15.6,248.5c0.6,0,0.8,0.1,0.9,0.1
		c0.5-0.1,0.9-0.2,1.4-0.4c18.9-6.4,38.4-9.1,58.5-7.9c16.7,1,32.7,4.6,48.1,10.7c10.7,4.3,20.8,9.7,30.2,16.3
		c1.5,1,2.5,0.9,3.7-0.2c1.5-1.3,3.2-2.6,4.8-3.8c23.9-18,51-28.4,81.3-30.7c5.2-0.4,9.6-2.7,14.1-4.8c0.4-0.2,0.7-0.7,1.1-1.1
		c0-0.2-0.1-0.5-0.1-0.7c-11.3,0.4-22.7,0.8-34.7,1.2c0.7-0.9,0.9-1.2,1.1-1.4c7.7-6.7,15.4-13.4,23-20.1c1.3-1.2,2.1-1.2,3.6-0.2
		c10.8,7.5,22.3,13.9,35,18.1c1,0.3,2.1,1.5,2.4,2.5c0.5,2.4,0.7,4.8,0.7,7.3c0,2,0.9,2.8,2.8,3.3c2.7,0.6,5.4,1.3,8.1,2.2
		c2,0.7,2.7,0.2,2.5-1.8c-0.4-5.5-0.9-11-1.2-16.5c-0.1-2.3-1.1-3.4-3.6-4c-17.8-3.7-33.3-11.9-47.1-23.1
		c-14.3-11.5-25.8-25.5-35.4-40.8c-9.7-15.3-17.3-31.5-23-48.6c-1.5-4.6-3.9-8.6-10-8.4c-0.1,0-0.2,0-0.2,0
		c-39.4-6.3-75.2,2.2-107.1,24.9c-21.5,15.2-37.2,34.9-47.8,58.4c-9.6,21.1-13.8,43.2-13.3,66.2C15.3,246.3,15.5,247.4,15.6,248.5z
		 M300,273.9c0.3-0.5,0.6-0.8,0.7-1.2c0.9-5.4,1.9-10.9,2.6-16.3c0.1-0.6-1-1.9-1.8-2.1c-5.2-1.6-10.5-3.4-15.9-4.5
		c-28-5.8-55.3-3.5-81.8,7.2c-19.6,7.9-36.4,19.8-50.5,35c-14.1,15.2-24.3,32.6-30.8,51.9c-3.7,11-6.1,22.3-7.1,33.9
		c-0.1,1.7,0.3,2.7,2.2,3.1c4.4,1,8.8,2.3,13.2,3.3c3,0.7,3.1,0.6,3.3-2.4c0.8-13.8,3.9-27.1,9.3-39.9c8.7-20.8,22.2-38.3,40.7-52.1
		c15.6-11.6,33.1-19.2,52.5-22.3c20.7-3.3,41-1.6,60.7,5.5C298.1,273.3,299,273.6,300,273.9z M27.7,297.5c-1.5-4.2-2.9-8.6-4.5-12.9
		c-0.6-1.7,0.1-2.3,1.6-2.9c22.8-8.6,46.1-10.4,70-5.2c13.2,2.9,25.5,7.9,36.9,15c1.5,0.9,2.3,0.8,3.3-0.6c2.5-3.1,5.2-6.2,7.9-9.2
		c2.9-3.2,2.9-3.1-0.8-5.4c-20.9-13-43.7-20.4-68.7-21.5c-18.6-0.8-36.6,2.1-54.1,8.5c-1.3,0.5-2.2,0.9-1.9,2.6
		c2.8,15.7,7.9,30.7,15.5,45c0.8,1.6,1.7,1.9,3.4,1.3c3.4-1.2,6.8-2.3,10.3-3.1c24-5.7,46.5-1.9,67.4,10.7c1.8,1.1,2.5,0.7,3.4-1
		c1.7-3.4,3.5-6.7,5.4-10c1.6-2.7,1.7-2.8-1.1-4.4c-8.9-5.2-18.3-9-28.4-11.5c-16.6-4-33.1-4-49.6,0
		C38.4,294.1,33.3,295.8,27.7,297.5z M149.6,384.6c-0.3,1.6,0.5,2.4,2.5,2.4c3.5,0,7-0.1,10.5,0.2c2.5,0.1,3.2-0.7,3.4-3.1
		c1.6-22.1,9.9-41.6,25.6-58c24.7-25.7,61.6-34.2,95.7-22c1.6,0.6,2.5,0.4,3.1-1.2c1.5-3.6,3-7.3,4.5-10.9c0.7-1.7,0.4-2.7-1.6-3.3
		c-5.4-1.5-10.6-3.4-16.1-4.5c-22.4-4.8-44.1-2.1-64.8,7.2c-14.8,6.7-27.3,16.4-37.5,28.7C159.3,338.9,151.2,360.4,149.6,384.6z
		 M282.2,318.3c-0.5-0.4-0.7-0.6-0.9-0.7c-0.4-0.2-0.9-0.4-1.3-0.5c-20.3-6.6-40.1-5.2-58.6,4.8c-24.8,13.4-37.7,34.5-40.8,61.4
		c-0.2,1.9,0.3,2.6,2.3,2.1c6.1-1.5,12.3-2.9,18.4-4.3c2-0.4,2.8-1.4,3.3-3.3c6.2-27,32.3-45.9,61.5-40.5c1.5,0.3,2.4-0.1,3.3-1.2
		c3.1-4.2,6.3-8.3,9.4-12.5C280,321.9,281,320.1,282.2,318.3z M103.5,357.8c0.2-0.8,0.5-1.5,0.7-2.2c1.5-5.3,2.8-10.7,4.5-16
		c2-6.2,2.2-5-3-8c-19-11.1-39.3-13.5-60.6-7.2c-0.9,0.3-1.8,0.8-2.8,1.3c0.6,0.9,1,1.6,1.5,2.2c4.2,5,8.4,10,12.6,15
		c1.3,1.6,2.7,2,4.8,1.7c10.8-1.3,21.1,0.4,30.6,5.6C95.6,352.4,99.3,355.1,103.5,357.8z M100.9,374.5c-3.7-8.8-20.4-18.7-28.8-17.4
		C81,364.1,90.4,369.7,100.9,374.5z"/>
	<path class="st0" d="M163.5,64.4c-0.5-3,0.7-5.8,2.6-8.2c4.8-6.4,9.9-12.5,14.9-18.8c1.9-2.4,4-4.7,5.9-7.2c0.5-0.6,0.8-2,0.4-2.5
		c-0.5-0.6-2-1.1-2.7-0.9c-2.3,0.8-4.9,1.6-6.8,3.2c-8.4,7-14.8,15.6-19.1,25.5c-1.2,2.6-4.2,4.3-7,3.1c-0.6-0.2-1.1-1.7-0.9-2.4
		c1.7-6.4,3.1-12.8,5.3-19c5.4-14.9,17.2-23.9,31.8-30c1.5-0.6,8.6-2.8,10.1-3.3c22.3-6.2,39.8-4.3,57.7,0.9c2,0.6,4.3,2.2,6.2,3.2
		c1.9,1,1.9,2.5,0.4,4c-2,2-4.3,3.4-7.4,3.7c-5.1,0.4-8.8,3.7-12.5,6.8c-6.7,5.8-11.9,12.7-17.1,19.7c-6.9,9.3-16.2,15.8-27.1,20.1
		c-9.9,4-20.3,6-31,6.4c-4,0.1-3.6,0.2-3.6-3.2C163.5,65.2,163.5,64.9,163.5,64.4z"/>
	<path class="st0" d="M180,196c2.3-19.4,5.1-38.5,7.6-57.6c-0.4-0.1-0.9-0.2-1.3-0.3c-7.9,20.5-14.9,41.4-22.8,62
		c-4.2-20.5-7.5-41.3-11.6-61.9c-0.4,0-0.8,0-1.2,0c-0.2,1.1-0.4,2.3-0.5,3.4c-0.2,10.3-0.4,20.5-0.7,30.8c-0.2,8-0.6,16.1-0.9,24.1
		c0,0.4-0.1,0.9-0.2,2c-9.2-15.3-18-30-26.9-44.7c-0.4,0.2-0.9,0.3-1.3,0.5c4.1,16.4,9.5,32.5,13.7,49
		c-13.1-13.6-25.5-27.8-38.5-41.5c-0.4,0.2-0.7,0.5-1.1,0.7c3.9,8.4,8.7,16.4,13,24.6c4.3,8.2,8.8,16.4,13,24.8
		c-16.6-9.4-32.7-19.7-49.1-29.4c-0.2,0.3-0.5,0.5-0.7,0.8c0.4,0.7,0.7,1.6,1.3,2.2c7,7.3,14,14.6,21,22c5.7,6,11.4,12,17,18
		c-0.1,0.2-0.1,0.4-0.2,0.6c-8.6-1.9-17.2-3.8-25.8-5.7c-8.6-1.9-17-4.5-25.8-5.7c-0.2,0.4-0.3,0.7-0.5,1.1
		C67,222,76.4,228.3,86.3,235c-1.5,0.1-2.2,0.2-3,0.2c-17.2,0-34.4,0-51.6,0c-3.1,0-3.5-0.1-3.1-3.1c0.9-6.5,1.6-13.1,3.4-19.4
		c2.3-8.4,5-16.8,8.6-24.8c4.6-10.3,10.9-19.9,18.2-28.7C66.5,150,75.2,142,85,135.1c10.4-7.4,21.8-13.1,34-17.1
		c16.2-5.3,32.9-7.4,50.1-5.9c4,0.3,7.9,0.8,11.9,1.1c2,0.1,2.4,1.5,3,2.8c2.2,4.6,4.1,9.3,6.6,13.8c5,9,10.3,17.9,15.6,26.8
		c0.9,1.5,0.7,2.3-0.3,3.6c-7.2,9.9-14.3,19.9-21.5,29.8C183,192,181.5,194,180,196z"/>
	<path class="st0" d="M225.3,181.4c-11.4,8.9-22.7,17.9-34.1,26.8c-0.2-0.1-0.4-0.1-0.6-0.2c5.9-15.9,11.8-31.7,17.7-47.8
		C214.1,167.4,219.6,174.3,225.3,181.4z"/>
	<path class="st0" d="M247.8,202.4c-13.8,5.2-27.3,10.2-40.7,15.3c-0.2-0.1-0.3-0.3-0.5-0.4c7.2-10.8,14.3-21.6,21.6-32.5
		C234.7,190.6,241,196.2,247.8,202.4z"/>
</g>
</svg>
