<?xml version="1.0" encoding="utf-8"?>
<!-- Generator: Adobe Illustrator 23.0.1, SVG Export Plug-In . SVG Version: 6.00 Build 0)  -->
<svg version="1.1" id="Layer_1" xmlns="http://www.w3.org/2000/svg" xmlns:xlink="http://www.w3.org/1999/xlink" x="0px" y="0px"
	 viewBox="0 0 191.3 194.9" style="enable-background:new 0 0 191.3 194.9;" xml:space="preserve">
<style type="text/css">
	.st0{fill:#222a35;}
</style>
<g>
	<g>
		<path class="st0" d="M58.2,71.5l15.5-10.8c10.6-7.5,13.3-22.3,5.8-32.9L68.7,12.2C61.2,1.6,46.4-1,35.8,6.4L20.3,17.3
			c-3.2,2.3-5.7,5.2-7.4,8.5C10.2,29.3-21.6,74.1,26,142.3c45.8,65.7,101.2,52.1,107.7,50.2c0,0,0,0,0.1,0c0.3-0.1,0.4-0.1,0.5-0.2
			c2.2-0.7,4.4-1.7,6.4-3.1l15.5-10.8c10.6-7.5,13.3-22.3,5.8-32.9l-10.8-15.5c-7.5-10.6-22.3-13.3-32.9-5.8L102.7,135
			c-2,1.4-3.7,3-5.1,4.9c0,0-15.8,6.8-33.7-19.1C45.9,94.8,58.2,71.5,58.2,71.5z"/>
	</g>
	<g>
		<path class="st0" d="M112.9,12.9c11.4,1.2,22.4,6.2,32.1,13.3c25.1,18.3,33.3,48.7,33.3,78.5c0,8.4,12.9,7.1,12.9-1.3
			c0-26.9-6.5-54.9-25-75.4c-11.2-12.4-25.6-21.2-41.6-25.9c-3.1-0.9-6.4-1.8-9.6-2.1C106.9-0.8,104.6,12,112.9,12.9L112.9,12.9z"/>
	</g>
	<g>
		<path class="st0" d="M108.8,44.6c6.3,0.7,12.2,3.2,17.9,7.3c14.7,10.6,19.1,28.2,19.2,45.5c0,8.4,13,7.1,12.9-1.3
			c-0.1-20.2-6.4-41-23.1-53.6c-7-5.3-15.9-9.7-24.8-10.7C102.8,30.9,100.5,43.7,108.8,44.6L108.8,44.6z"/>
	</g>
</g>
</svg>
