<?xml version="1.0" encoding="utf-8"?>
<!-- Generator: Adobe Illustrator 23.0.1, SVG Export Plug-In . SVG Version: 6.00 Build 0)  -->
<svg version="1.1" id="Layer_1" xmlns="http://www.w3.org/2000/svg" xmlns:xlink="http://www.w3.org/1999/xlink" x="0px" y="0px"
	 viewBox="0 0 156.6 203.6" style="enable-background:new 0 0 156.6 203.6;" xml:space="preserve">
<style type="text/css">
	.st0{fill:#222a35;}
</style>
<path class="st0" d="M78.3,0C35.1,0,0,35.1,0,78.3c0,43.2,78.3,125.3,78.3,125.3s78.3-82,78.3-125.3C156.6,35.1,121.6,0,78.3,0z
	 M115.9,71.5c0,0.2,0,0.3,0,0.4c0,0,0,0,0,0c-0.5,17.1-12.6,32.7-29.6,36.1c-15.6,3.1-31.6-3.5-40-17.1c-8.5-13.6-6.8-31.2,3-43.5
	c9.6-12,26.8-16.9,41.4-11.6c14.9,5.4,24.7,19.1,25.2,34.9v0c0,0.2,0,0.4,0,0.6V71.5z"/>
</svg>
