<?xml version="1.0" encoding="utf-8"?><svg version="1.1" id="Layer_1" xmlns="http://www.w3.org/2000/svg" xmlns:xlink="http://www.w3.org/1999/xlink" x="0px" y="0px" viewBox="0 0 123.38 122.13" style="enable-background:new 0 0 123.38 122.13" xml:space="preserve"><style type="text/css">.st0{fill-rule:evenodd;clip-rule:evenodd;stroke:#000000;stroke-width:0.5;stroke-miterlimit:2.6131;}</style><g><path class="st0" d="M61.24,2.05c1.99,8.76,3.92,16.87,5.56,21.32c4.9-0.24,8.08-1.56,11.4-2.78c4.09-1.5,7.52-3.44,10.51-5.68 c2.28-1.49,3.56-0.81,3.38,3.05c-0.69,3.59-2.54,6.34-5.36,8.4c4.75-0.19,9.12,0.28,13.08,1.46c6.14,1.84,11.25,5.37,15.16,10.81 c1.22,1.69,2.31,3.56,3.28,5.6c0.96,2.02,1.8,4.24,2.51,6.65l0.02,0.05l0,0c2.69,10.08,3,19.47,1.24,27.92 c-1.84,8.88-5.95,16.7-11.92,23.15c-4.08,4.41-8.98,8.22-14.74,11.28c-5.45,2.9-11.7,5.14-18.77,6.58 c-9.34,1.9-17.78,2.41-25.41,1.72c-7.69-0.7-14.57-2.61-20.71-5.56c-10.03-4.81-18.06-13.53-23.31-23.76 C1.71,81.61-0.77,69.28,0.63,58.01c0.57-4.58,1.86-8.93,3.93-12.92c1.97-3.78,4.65-7.24,8.11-10.27 c4.75-4.95,12.85-7.96,24.03-9.18l-8.17-3.32c-1.45-0.94-0.81-1.5,1.53-1.74c10.49-0.4,19.69,0.09,26.6,2.18 c-0.11-5.85-2.58-11.7-5.45-17.55l7.52-4.91L61.24,2.05L61.24,2.05z M15.47,69.38c-0.23-1.16,0.53-2.29,1.7-2.52 c1.16-0.23,2.29,0.53,2.52,1.7c1.31,6.65,3.31,12.08,5.87,16.5c2.53,4.37,5.62,7.77,9.14,10.44c0.95,0.71,1.13,2.06,0.42,3.01 c-0.71,0.95-2.06,1.13-3.01,0.42c-3.96-3-7.43-6.82-10.26-11.71C19.04,82.38,16.87,76.52,15.47,69.38L15.47,69.38z M83.23,31.1 c6.39,1.88,11.05,5.77,12.68,13.13c0.12,3.71-0.4,5.18-1.96,3.05c-8.19-6.5-15.91-9.72-22.89-7.96c2.35,5.61,7.02,10,12.1,14.17 c-9.14,0.13-17.25-3.95-24.64-11.01c-8.25,4.05-20.27,2.94-24.81,9.26c-2.65,3.25-3.16,1.6-2.45-2.83 c1.93-7.06,5.22-11.62,10.03-13.41c-7.9,0.3-13.12-0.78-16.1-3c-4.04,1.35-7.17,3.16-9.34,5.45l0,0c-0.05,0.05-0.1,0.1-0.16,0.15 c-3.04,2.65-5.41,5.69-7.15,9.04c-1.83,3.51-2.96,7.35-3.46,11.4c-1.29,10.41,1,21.81,6.07,31.68 c4.83,9.41,12.15,17.41,21.26,21.77c5.67,2.72,12.04,4.49,19.19,5.14c7.21,0.65,15.22,0.16,24.12-1.65 c6.61-1.35,12.45-3.44,17.56-6.16c5.33-2.84,9.84-6.34,13.57-10.36c5.42-5.85,9.15-12.95,10.82-21.02 c1.61-7.78,1.32-16.48-1.19-25.87l0,0c-0.64-2.15-1.4-4.13-2.25-5.95c-0.86-1.81-1.81-3.44-2.86-4.9 c-3.31-4.6-7.63-7.58-12.82-9.13C94.08,30.77,88.94,30.48,83.23,31.1L83.23,31.1z"/></g></svg>