<svg id="Layer_1" data-name="Layer 1" xmlns="http://www.w3.org/2000/svg" viewBox="0 0 47.57 30.14"><defs><style>.cls-1{fill:#222a35;fill-rule:evenodd;}</style></defs><title>id-icon</title><path class="cls-1" d="M5.83,21.2a1,1,0,0,0,0,2H22.22a1,1,0,0,0,0-2Zm0-4.73a1,1,0,0,0,0,2H22.22a1,1,0,0,0,0-2Zm28.42-.09h.38l5.6,3.23v8.52H28.65V19.61ZM5.83,11.75a1,1,0,0,0,0,2H22.22a1,1,0,0,0,0-2ZM34.44,8a3.21,3.21,0,1,1-3.2,3.2A3.18,3.18,0,0,1,34.44,8ZM5.56,6.86a1,1,0,1,0,0,2H17.44a1,1,0,1,0,0-2ZM2,2H45.56V28.13H42.24V19a1,1,0,0,0-.5-.87l-4.58-2.64a5.51,5.51,0,0,0,2.2-3.64,1,1,0,0,0,.29-.71,1,1,0,0,0-.29-.7A5.09,5.09,0,0,0,34.44,6a5.2,5.2,0,0,0-2.79,9.6l-4.5,2.6a1,1,0,0,0-.51.87v9.1H2ZM1,0A1,1,0,0,0,0,1V29.14a1,1,0,0,0,1,1H46.56a1,1,0,0,0,1-1V1a1,1,0,0,0-1-1Z"/></svg>