<?xml version="1.0" encoding="utf-8"?>
<!-- Generator: Adobe Illustrator 23.0.1, SVG Export Plug-In . SVG Version: 6.00 Build 0)  -->
<svg version="1.1" id="Layer_1" xmlns="http://www.w3.org/2000/svg" xmlns:xlink="http://www.w3.org/1999/xlink" x="0px" y="0px"
	 viewBox="0 0 253.7 191.7" style="enable-background:new 0 0 253.7 191.7;" xml:space="preserve">
<style type="text/css">
	.st0{fill:#222a35}
</style>
<path class="st0" d="M222.4,0H31.3C14.1,0,0,14.1,0,31.3v129c0,17.2,14.1,31.3,31.3,31.3h191.1c17.2,0,31.3-14.1,31.3-31.3v-129
	C253.7,14.1,239.6,0,222.4,0z M80.5,122.5c-1.8,1.9-3.7,3.8-5.5,5.7c-12.8,13.1-25.6,26.3-38.3,39.4c-6.8,6.9-17.4-3.7-10.6-10.6
	c1.8-1.9,3.7-3.8,5.5-5.7c12.8-13.1,25.6-26.3,38.3-39.4C76.6,104.9,87.2,115.5,80.5,122.5z M132.2,132.2c-3.1,2.9-7.6,2.8-10.6,0
	c-3.9-3.7-7.9-7.3-11.8-11c-17.1-15.8-34.1-31.6-51.1-47.5c-10.7-10-21.5-19.9-32.2-29.9c-7.1-6.6,3.5-17.2,10.6-10.6
	c3.9,3.7,7.9,7.3,11.8,11C65.8,60,82.9,75.8,99.9,91.6c9,8.3,17.9,16.6,26.9,24.9c2.1-2,4.2-4,6.4-6c16.7-15.8,33.5-31.7,50.2-47.5
	c10.5-9.9,21-19.9,31.5-29.8c7-6.6,17.7,4,10.6,10.6c-3.9,3.7-7.8,7.3-11.6,11c-16.7,15.8-33.5,31.7-50.2,47.5
	C153.1,112.3,142.7,122.2,132.2,132.2z M219.6,167.6c-1.8-1.9-3.7-3.8-5.5-5.7c-12.8-13.1-25.6-26.3-38.3-39.4
	c-6.7-6.9,3.9-17.6,10.6-10.6c1.8,1.9,3.7,3.8,5.5,5.7c12.8,13.1,25.6,26.3,38.3,39.4C237,163.9,226.3,174.5,219.6,167.6z"/>
</svg>
