<svg id="Layer_1" data-name="Layer 1" xmlns="http://www.w3.org/2000/svg" viewBox="0 0 47.57 41.17"><defs><style>.cls-1{fill:#222a35;fill-rule:evenodd;}</style></defs><title>org-icon</title><path class="cls-1" d="M36.32,32.25h9.24v6.91H36.32Zm-17.15,0h9.24v6.91H19.17ZM2,32.25h9.25v6.91H2ZM19.17,2h9.24v6.9H19.17Zm-1-2a1,1,0,0,0-1,1V9.92a1,1,0,0,0,1,1h4.61v4.66L5.62,30.24H1a1,1,0,0,0-1,1v8.92a1,1,0,0,0,1,1H12.26a1,1,0,0,0,1-1V31.25a1,1,0,0,0-1-1H8.72l14.06-12v12H18.17a1,1,0,0,0-1,1v8.92a1,1,0,0,0,1,1H29.41a1,1,0,0,0,1-1V31.25a1,1,0,0,0-1-1H24.79v-12l14.07,12H35.32a1,1,0,0,0-1,1v8.92a1,1,0,0,0,1,1H46.57a1,1,0,0,0,1-1V31.25a1,1,0,0,0-1-1H42L24.79,15.58V10.92h4.62a1,1,0,0,0,1-1V1a1,1,0,0,0-1-1Z"/></svg>