<svg id="Layer_1" data-name="Layer 1" xmlns="http://www.w3.org/2000/svg" viewBox="0 0 45.23 47.57"><defs><style>.cls-1{fill:#222a35;fill-rule:evenodd;}</style></defs><title>threepeople-icon</title><path class="cls-1" d="M10.38,10.66l3,1.42-1.28.55a1,1,0,0,0-.61.92v16.5a1,1,0,0,0,1,1h3.16V45.56H11.75V32a1,1,0,0,0-2,0V45.56H6.17V17.62a1,1,0,0,0-2,0V29.05H2V14.21Zm24.46,0,8.38,3.55V29.05H41.06V17.62a1,1,0,1,0-2,0V45.56H35.49V32a1,1,0,0,0-2,0V45.56H28.85V31.05H32a1,1,0,0,0,1-1V13.55a1,1,0,0,0-.61-.92l-.92-.39ZM22.27,10.5,31,14.21V29.05H28.85V17.62a1,1,0,0,0-2,0V45.56H23.28V27.76a.94.94,0,0,0-.12-.47l0-.06a1,1,0,0,0-.86-.48,1,1,0,0,0-1,1v17.8H17.7V17.62a1,1,0,0,0-2,0V29.05H13.53V14.21l2.68-1.13.14-.06ZM34.48,2a3.2,3.2,0,1,1-3.2,3.2A3.18,3.18,0,0,1,34.48,2ZM22.27,2a3.2,3.2,0,1,1-3.2,3.2A3.18,3.18,0,0,1,22.27,2ZM10.75,2a3.2,3.2,0,1,1-3.21,3.2A3.18,3.18,0,0,1,10.75,2Zm0-2A5.21,5.21,0,0,0,7.86,9.55L.61,12.63a1,1,0,0,0-.61.92v16.5a1,1,0,0,0,1,1H4.17V46.56a1,1,0,0,0,1,1H40.06a1,1,0,0,0,1-1V31.05h3.16a1,1,0,0,0,1-1V13.55a1,1,0,0,0-.61-.92L37.27,9.51A5.46,5.46,0,0,0,39.4,5.92a1,1,0,0,0,.29-.71,1,1,0,0,0-.29-.71A5.09,5.09,0,0,0,34.48,0,5.21,5.21,0,0,0,32,9.78l-3,1.4-4-1.67a5.46,5.46,0,0,0,2.13-3.59,1,1,0,0,0,.29-.71,1,1,0,0,0-.29-.71A5.09,5.09,0,0,0,22.27,0a5.21,5.21,0,0,0-2.88,9.55L15.91,11,13.18,9.75a5.41,5.41,0,0,0,2.48-3.83,1,1,0,0,0,.3-.71,1,1,0,0,0-.3-.7A5.08,5.08,0,0,0,10.75,0Z"/></svg>