<svg id="Layer_1" data-name="Layer 1" xmlns="http://www.w3.org/2000/svg" xmlns:xlink="http://www.w3.org/1999/xlink" viewBox="0 0 1167.41 254.22"><defs><style>.cls-1{fill:none;}.cls-2{clip-path:url(#clip-path);}.cls-3{fill:url(#linear-gradient);}.cls-4{clip-path:url(#clip-path-2);}.cls-5{fill:url(#linear-gradient-2);}.cls-6{clip-path:url(#clip-path-3);}.cls-7{fill:url(#linear-gradient-3);}.cls-8{clip-path:url(#clip-path-4);}.cls-9{fill:url(#linear-gradient-4);}.cls-10{clip-path:url(#clip-path-5);}.cls-11{fill:url(#linear-gradient-5);}.cls-12{clip-path:url(#clip-path-6);}.cls-13{fill:url(#linear-gradient-6);}.cls-14{clip-path:url(#clip-path-7);}.cls-15{fill:url(#linear-gradient-7);}</style><clipPath id="clip-path"><path class="cls-1" d="M27.38,179.86V74.36a47,47,0,0,1,47-47H1093a47,47,0,0,1,47,47v105.5a47,47,0,0,1-47,47H74.36a47,47,0,0,1-47-47M74.36,0A74.45,74.45,0,0,0,0,74.36v105.5a74.45,74.45,0,0,0,74.36,74.36H1093a74.45,74.45,0,0,0,74.37-74.36V74.36A74.45,74.45,0,0,0,1093,0Z"/></clipPath><linearGradient id="linear-gradient" x1="-566.57" y1="1602.77" x2="-565.57" y2="1602.77" gradientTransform="matrix(0, 749.4, 749.4, 0, -1200530.18, 424339.13)" gradientUnits="userSpaceOnUse"><stop offset="0" stop-color="#ff1d25"/><stop offset="0.22" stop-color="#ff1d25"/><stop offset="0.47" stop-color="#f0191c"/><stop offset="0.95" stop-color="#c80d03"/><stop offset="1" stop-color="#c30c00"/></linearGradient><clipPath id="clip-path-2"><path class="cls-1" d="M449,122.94v-8.72a2.45,2.45,0,0,1,2.45-2.44H495a2.44,2.44,0,0,1,2.44,2.44v8.72a2.45,2.45,0,0,1-2.44,2.45H451.41a2.45,2.45,0,0,1-2.45-2.45M419.71,68a24.46,24.46,0,0,0-24.46,24.45V183a2.45,2.45,0,0,0,2.45,2.45h48.75A2.45,2.45,0,0,0,448.9,183c0-3.71,0-15.05,0-20.08a2.45,2.45,0,0,1,2.44-2.45h29.87a2.46,2.46,0,0,1,2,1.08c2.84,4.24,13.2,19.65,15.38,22.88a2.43,2.43,0,0,0,2,1.08h51.13a2.45,2.45,0,0,0,2-3.83c-4-5.83-11.63-16.91-16-23.34.37-.22.64-.39.91-.54,8.09-4.61,12.54-11.51,12.61-20.88.12-15.09,0-30.2,0-45.3a22.4,22.4,0,0,0-3.14-11.79C543.37,72,536.31,68,527.12,68H419.71"/></clipPath><linearGradient id="linear-gradient-2" x1="-570.08" y1="1603.97" x2="-569.08" y2="1603.97" gradientTransform="matrix(0, 171.42, 171.42, 0, -274482.65, 97769.71)" xlink:href="#linear-gradient"/><clipPath id="clip-path-3"><path class="cls-1" d="M587.82,67.74A23.61,23.61,0,0,0,564,91.64c-.06,27.2-.08,79.28-.08,91.12a2.44,2.44,0,0,0,2.44,2.44l48.8.08a2.45,2.45,0,0,0,2.45-2.44c0-8.94.07-57.27.08-68.73a2.44,2.44,0,0,1,2.44-2.44h28.73a2.44,2.44,0,0,1,2.45,2.44c0,11.48-.09,59.85-.1,68.78a2.44,2.44,0,0,0,2.44,2.44l47.19.07a2.44,2.44,0,0,0,2.45-2.44l.1-68.85a2.45,2.45,0,0,1,2.45-2.44h28.7a2.44,2.44,0,0,1,2.44,2.45l-.1,68.87a2.45,2.45,0,0,0,2.45,2.45l48.8.07a2.45,2.45,0,0,0,2.45-2.44c0-11.85.14-64,.17-91.24a22.15,22.15,0,0,0-2.15-10C784.08,72.74,776.73,68,766.63,68c-23.76-.1-150.16-.25-177.28-.25h-1.53"/></clipPath><linearGradient id="linear-gradient-3" x1="-569.32" y1="1603.71" x2="-568.32" y2="1603.71" gradientTransform="matrix(0, 205.75, 205.75, 0, -329286.11, 117165.61)" xlink:href="#linear-gradient"/><clipPath id="clip-path-4"><path class="cls-1" d="M90.69,68.13A24.46,24.46,0,0,0,66.24,92.59v90.47a2.45,2.45,0,0,0,2.45,2.45h48.75a2.45,2.45,0,0,0,2.44-2.45V158a2.45,2.45,0,0,1,2.45-2.45H208a2.44,2.44,0,0,0,2.44-2.44V119a2.44,2.44,0,0,0-2.44-2.45H122.33a2.45,2.45,0,0,1-2.45-2.45v-4.67a2.45,2.45,0,0,1,2.45-2.44h89.06a2.45,2.45,0,0,0,2.44-2.45v-34a2.45,2.45,0,0,0-2.44-2.45Z"/></clipPath><linearGradient id="linear-gradient-4" x1="-571.18" y1="1604.31" x2="-570.18" y2="1604.31" gradientTransform="matrix(0, 137.95, 137.95, 0, -221176.28, 78843.57)" xlink:href="#linear-gradient"/><clipPath id="clip-path-5"><path class="cls-1" d="M280.2,123.12v-8.88a2.45,2.45,0,0,1,2.44-2.45H326.4a2.45,2.45,0,0,1,2.45,2.45v8.88a2.45,2.45,0,0,1-2.45,2.44H282.64a2.44,2.44,0,0,1-2.44-2.44M251,68.07a24.46,24.46,0,0,0-24.47,24.47v90.52a2.45,2.45,0,0,0,2.44,2.45h48.8a2.45,2.45,0,0,0,2.45-2.45V166a2.44,2.44,0,0,1,2.44-2.44H326.4a2.45,2.45,0,0,1,2.45,2.44v17.08a2.45,2.45,0,0,0,2.44,2.45h48.87a2.45,2.45,0,0,0,2.45-2.45V92.54a24.46,24.46,0,0,0-24.47-24.47Z"/></clipPath><linearGradient id="linear-gradient-5" x1="-570.12" y1="1603.98" x2="-569.12" y2="1603.98" gradientTransform="matrix(0, 169.92, 169.92, 0, -272242.54, 96920.29)" xlink:href="#linear-gradient"/><clipPath id="clip-path-6"><path class="cls-1" d="M981.64,68a24.42,24.42,0,0,0-24.42,24.42v68.69a24.42,24.42,0,0,0,24.42,24.43H1097a2.45,2.45,0,0,0,2.44-2.45V145.64a2.45,2.45,0,0,0-2.44-2.45h-83.53a2.44,2.44,0,0,1-2.44-2.44V113.61a2.45,2.45,0,0,1,2.44-2.45H1097a2.44,2.44,0,0,0,2.44-2.44V70.41A2.44,2.44,0,0,0,1097,68Z"/></clipPath><linearGradient id="linear-gradient-6" x1="-570.31" y1="1603.99" x2="-569.31" y2="1603.99" gradientTransform="matrix(0, 163.09, 163.09, 0, -260561.57, 93059.56)" xlink:href="#linear-gradient"/><clipPath id="clip-path-7"><path class="cls-1" d="M827.81,68a24.45,24.45,0,0,0-24.45,24.45v68.61a24.46,24.46,0,0,0,24.45,24.46H942.13a2.45,2.45,0,0,0,2.44-2.45V152.38a2.45,2.45,0,0,0-2.44-2.45H859.62a2.44,2.44,0,0,1-2.44-2.45V144a2.44,2.44,0,0,1,2.44-2.45H938.8a2.45,2.45,0,0,0,2.45-2.44V114.46A2.45,2.45,0,0,0,938.8,112H859.62a2.44,2.44,0,0,1-2.44-2.44v-3.52a2.45,2.45,0,0,1,2.44-2.45h82.51a2.44,2.44,0,0,0,2.44-2.44V70.43A2.44,2.44,0,0,0,942.13,68Z"/></clipPath><linearGradient id="linear-gradient-7" x1="-570.33" y1="1604" x2="-569.33" y2="1604" gradientTransform="matrix(0, 162.54, 162.54, 0, -259842.86, 92751.76)" xlink:href="#linear-gradient"/></defs><g class="cls-2"><rect class="cls-3" x="14.65" y="-274.82" width="1138.12" height="803.87" transform="translate(14.65 308.88) rotate(-30)"/></g><g class="cls-4"><rect class="cls-5" x="376.56" y="35.93" width="197.01" height="181.61" transform="translate(0.28 254.51) rotate(-30)"/></g><g class="cls-6"><rect class="cls-7" x="549.64" y="18.92" width="255.33" height="215.41" transform="translate(27.43 355.62) rotate(-30)"/></g><g class="cls-8"><rect class="cls-9" x="46.78" y="39.1" width="186.51" height="175.45" transform="translate(-44.65 87.01) rotate(-30)"/></g><g class="cls-10"><rect class="cls-11" x="207.59" y="36.9" width="193.92" height="179.77" transform="translate(-22.59 169.26) rotate(-30)"/></g><g class="cls-12"><rect class="cls-13" x="937.36" y="40.28" width="181.96" height="172.92" transform="translate(74.4 531.15) rotate(-30)"/></g><g class="cls-14"><rect class="cls-15" x="783.44" y="40.56" width="181.06" height="172.38" transform="translate(53.72 453.96) rotate(-30)"/></g></svg>