<svg width="81.8789" height="83.0976" xmlns="http://www.w3.org/2000/svg" xmlns:xlink="http://www.w3.org/1999/xlink" id="svg1604" overflow="hidden"><style>
.MsftOfcResponsive_Fill_e7ba1e {
 fill:#E7BA1E; 
}
</style>
<defs id="defs1608"></defs><path d="M40.9395 1.85145e-07C39.8967 0.000587057 39.0514 0.845825 39.0508 1.88867L39.0508 12.8438C39.0503 13.8874 39.8959 14.7338 40.9395 14.7344 41.9832 14.7348 42.8296 13.8891 42.8301 12.8454 42.8301 12.8449 42.8301 12.8443 42.8301 12.8438L42.8301 1.88867C42.8295 0.845083 41.9831-0.00046176 40.9395 1.91215e-07ZM13.3027 11.4316C13.2807 11.4319 13.2587 11.4326 13.2367 11.4336 12.7661 11.4565 12.321 11.6543 11.9887 11.9883 11.2511 12.7263 11.2511 13.9223 11.9887 14.6602L19.7387 22.4024C20.478 23.1391 21.6745 23.137 22.4112 22.3977 22.4117 22.3972 22.4121 22.3968 22.4125 22.3964 23.1509 21.6588 23.1514 20.4622 22.4138 19.7239 22.4134 19.7234 22.4129 19.723 22.4125 19.7226L14.6606 11.9804C14.3002 11.6224 13.811 11.4246 13.3031 11.4316ZM68.5293 11.4316C68.506 11.4319 68.4826 11.4325 68.4593 11.4336 67.9897 11.4544 67.5447 11.6494 67.2112 11.9805L59.4691 19.7227C58.728 20.4576 58.7229 21.6541 59.4578 22.3952 59.4582 22.3956 59.4587 22.3961 59.4591 22.3965 60.1954 23.1358 61.3914 23.1385 62.131 22.4025L69.883 14.6603C70.6206 13.9224 70.6206 12.7264 69.883 11.9885 69.5244 11.6282 69.0358 11.4275 68.5275 11.4318ZM40.9395 18.1816C28.1387 18.1815 17.7168 28.5958 17.7168 41.3965 17.7173 49.4111 21.8614 56.862 28.6641 61.0996 28.9629 61.2863 29.3079 61.3857 29.6602 61.3867L35.875 61.3867C36.0275 61.4256 36.1844 61.4453 36.3418 61.4453 36.5005 61.4456 36.6587 61.4259 36.8125 61.3867L52.2109 61.3867C52.5665 61.3876 52.9152 61.288 53.2168 61.0996 60.0195 56.862 64.1558 49.4111 64.1563 41.3965 64.1563 28.5958 53.7401 18.1816 40.9395 18.1816ZM40.9395 21.9609C51.6975 21.9609 60.377 30.6384 60.377 41.3965 60.3765 47.9745 56.9819 54.0233 51.4883 57.6074L47.4277 57.6074 47.4277 46.9258C47.4267 46.3907 47.1989 45.8811 46.8008 45.5234L37.6035 37.2637C37.2651 36.9575 36.8274 36.784 36.3711 36.7754 35.3274 36.7589 34.468 37.5915 34.4514 38.6352 34.4513 38.6454 34.4512 38.6557 34.4512 38.666L34.4512 57.6074 30.3828 57.6074C24.8892 54.0233 21.4965 47.9745 21.4961 41.3965 21.4961 30.6384 30.1814 21.9609 40.9395 21.9609ZM1.8887 39.0195C0.845094 39.0201-0.000472754 39.8665 2.40907e-07 40.9102 0.000598161 41.953 0.845851 42.7982 1.8887 42.7988L12.8438 42.7988C13.8874 42.7993 14.7338 41.9537 14.7344 40.9101 14.7349 39.8665 13.8892 39.02 12.8455 39.0195 12.8449 39.0195 12.8444 39.0195 12.8438 39.0195ZM69.0274 39.0195C67.9838 39.0201 67.1382 39.8665 67.1387 40.9102 67.1393 41.953 67.9845 42.7982 69.0274 42.7988L79.9902 42.7988C81.033 42.7982 81.8783 41.953 81.8789 40.9101 81.8794 39.8665 81.0338 39.0201 79.9902 39.0195ZM38.2305 42.9023 43.6484 47.7676 43.6484 57.6074 38.2305 57.6074ZM21.0547 58.875C21.032 58.8753 21.0094 58.8759 20.9867 58.877 20.5172 58.8978 20.0722 59.0927 19.7387 59.4239L11.9887 67.168C11.2511 67.9059 11.2511 69.102 11.9887 69.8399 12.7266 70.5775 13.9227 70.5775 14.6606 69.8399L22.4125 62.0957C23.1501 61.3578 23.1501 60.1618 22.4125 59.4239 22.0522 59.066 21.5629 58.8682 21.0551 58.875ZM60.7754 58.875C60.7534 58.8753 60.7314 58.8759 60.7094 58.877 60.2398 58.8977 59.7948 59.0927 59.4613 59.4239 58.7265 60.1646 58.731 61.3606 59.4713 62.0957L67.2134 69.8399C67.951 70.5783 69.1476 70.5789 69.8859 69.8413 69.8864 69.8408 69.8868 69.8403 69.8873 69.8399 70.6249 69.102 70.6249 67.9059 69.8873 67.168L62.1353 59.4239C61.775 59.066 61.2857 58.8682 60.7779 58.8751ZM29.1289 64.9238C28.0853 64.9234 27.2389 65.7689 27.2383 66.8125 27.2378 67.8562 28.0835 68.7026 29.1272 68.7031 29.1278 68.7031 29.1283 68.7031 29.1289 68.7031L52.7442 68.7031C53.7878 68.7025 54.6333 67.8561 54.6328 66.8125 54.6322 65.7697 53.787 64.9245 52.7442 64.9238ZM29.1289 72.1719C28.0852 72.1714 27.2388 73.0171 27.2383 74.0608 27.2383 74.0614 27.2383 74.0619 27.2383 74.0625 27.2389 75.1061 28.0853 75.9516 29.1289 75.9512L52.7442 75.9512C53.787 75.9505 54.6322 75.1053 54.6328 74.0625 54.6333 73.0189 53.7878 72.1725 52.7442 72.1719ZM35.2188 79.3184C34.1752 79.3178 33.3287 80.1634 33.3281 81.207 33.3276 82.2507 34.1733 83.0972 35.217 83.0976 35.2176 83.0976 35.2182 83.0976 35.2188 83.0976L46.6543 83.0976C47.6979 83.0971 48.5435 82.2506 48.543 81.207 48.5424 80.1642 47.6971 79.3189 46.6543 79.3184Z" id="path1639" class="MsftOfcResponsive_Fill_e7ba1e" color="#000000" stroke-width="3.77952" stroke-linejoin="round" fill="#E7BA1E" font-family="Arial" font-weight="400" font-size="12" overflow="visible"/></svg>