<svg width="85.0981" height="89.4922" xmlns="http://www.w3.org/2000/svg" xmlns:xlink="http://www.w3.org/1999/xlink" id="svg1634" overflow="hidden"><defs id="defs1638"></defs><path d="M20.2187 0C14.8261 1.00001e-05 10.416 4.41011 10.416 9.80273 10.416 13.1944 12.1605 16.1953 14.7969 17.957L1.1504 23.75C0.451874 24.047-0.00117894 24.7331 2.296e-06 25.4922L2.28849e-06 56.5332C0.000709859 57.576 0.8459 58.4212 1.8887 58.4219L7.8379 58.4219 7.8379 87.6035C7.8386 88.6471 8.68495 89.4925 9.7285 89.4922L20.2187 89.4922C20.2377 89.4918 20.2567 89.4911 20.2757 89.4902L31.3382 89.4902C31.3642 89.4914 31.3902 89.4921 31.4162 89.4922L41.9064 89.4922 52.3967 89.4922C52.4164 89.4918 52.436 89.4912 52.4557 89.4902L64.8014 89.4902C64.8274 89.4914 64.8534 89.4921 64.8794 89.4922L75.3696 89.4922C76.4131 89.4925 77.2595 88.6471 77.2602 87.6035L77.2602 58.4219 83.2095 58.4219C84.253 58.4211 85.0985 57.5748 85.0981 56.5313L85.0981 25.4922C85.0993 24.7331 84.6462 24.047 83.9477 23.75L70.1313 17.8848C72.2425 16.3382 73.6929 13.8948 74.1294 11.1387 74.4834 10.7842 74.6822 10.3037 74.6821 9.80273 74.6822 9.30176 74.4834 8.82124 74.1294 8.46679 73.3894 3.7939 69.752 1.00001e-05 64.8794 0 59.4868 1.00001e-05 55.0767 4.41011 55.0766 9.80273 55.0766 13.497 57.1484 16.7282 60.186 18.3984L54.5766 21.0352 47.1587 17.8848C49.2699 16.3382 50.7202 13.8948 51.1567 11.1387 51.5108 10.7842 51.7096 10.3037 51.7095 9.80273 51.7096 9.30175 51.5108 8.82122 51.1567 8.46679 50.4167 3.79389 46.7794-1.99999e-05 41.9067 0 36.5141 1.00001e-05 32.104 4.41011 32.104 9.80273 32.104 13.1944 33.8505 16.1953 36.4868 17.957L29.9302 20.7402 24.7915 18.3359C27.2727 16.842 28.9892 14.1765 29.4692 11.1309 29.8214 10.7783 30.02 10.301 30.022 9.80273 30.02 9.30446 29.8214 8.82713 29.4692 8.47461 28.7321 3.79829 25.0943 1.00001e-05 20.2192 0ZM20.2187 3.77929C23.5688 3.7793 26.2422 6.45272 26.2422 9.80273 26.2422 13.1528 23.5688 15.8262 20.2187 15.8262 16.8687 15.8262 14.1953 13.1528 14.1953 9.80273 14.1953 6.45272 16.8687 3.7793 20.2187 3.77929ZM41.9062 3.77929C45.2563 3.77928 47.9297 6.45271 47.9297 9.80273 47.9297 13.1528 45.2563 15.8262 41.9062 15.8262 38.5562 15.8262 35.8828 13.1528 35.8828 9.80273 35.8828 6.45272 38.5562 3.7793 41.9062 3.77929ZM64.8789 3.77929C68.2289 3.7793 70.9023 6.45272 70.9023 9.80273 70.9023 13.1528 68.2289 15.8262 64.8789 15.8262 61.5289 15.8262 58.8554 13.1528 58.8554 9.80273 58.8554 6.45272 61.5289 3.7793 64.8789 3.77929ZM41.9062 19.7598 58.3457 26.7383 58.3457 54.6426 54.2851 54.6426 54.2851 33.1465C54.2664 32.1029 53.4052 31.272 52.3616 31.2907 51.3443 31.3089 50.524 32.1292 50.5058 33.1465L50.5058 56.5313 50.5058 85.7129 43.7969 85.7129 43.7969 52.2207C43.7967 51.9107 43.7202 51.6055 43.5742 51.332 43.5562 51.2983 43.5372 51.265 43.5172 51.2324 43.1732 50.6725 42.563 50.3316 41.9058 50.332 40.863 50.3327 40.0178 51.1779 40.0172 52.2207L40.0172 85.7129 33.3062 85.7129 33.3062 56.5332 33.3062 33.1465C33.2875 32.1029 32.4263 31.272 31.3827 31.2907 30.3654 31.3089 29.5451 32.1292 29.5269 33.1465L29.5269 54.6426 25.4664 54.6426 25.4664 26.7383 30.4976 24.6016C30.5861 24.5715 30.6723 24.535 30.7554 24.4922L30.7554 24.4922ZM65.5586 20.0488 81.3183 26.7383 81.3183 54.6426 77.2597 54.6426 77.2597 33.1465C77.2597 32.1023 76.4133 31.2559 75.3691 31.2559 74.325 31.2559 73.4785 32.1023 73.4785 33.1465L73.4785 56.5313 73.4785 85.7129 66.7695 85.7129 66.7695 60.2226C66.7689 59.1791 65.9225 58.3335 64.8789 58.334 63.8361 58.3346 62.9908 59.1798 62.9902 60.2226L62.9902 85.7109 54.2851 85.7109 54.2851 58.4219 60.2363 58.4219C61.2799 58.4212 62.1254 57.5748 62.125 56.5313L62.125 25.4922C62.1262 24.7331 61.6731 24.047 60.9746 23.75L59.25 23.0176ZM19.5312 20.0508 25.248 22.7286 22.8398 23.75C22.1405 24.0465 21.6866 24.7327 21.6875 25.4922L21.6875 56.5332C21.6882 57.5768 22.5346 58.4223 23.5781 58.4219L29.5273 58.4219 29.5273 85.711 22.1074 85.711 22.1074 60.2227C22.1068 59.1799 21.2615 58.3346 20.2187 58.334 19.1751 58.3336 18.3287 59.1791 18.3281 60.2227L18.3281 85.7129 11.6172 85.7129 11.6172 56.5332 11.6172 33.1465C11.5985 32.1029 10.7373 31.272 9.69371 31.2907 8.67642 31.3089 7.85612 32.1292 7.8379 33.1465L7.8379 54.6426 3.7793 54.6426 3.7793 26.7383Z" id="path1666" color="#000000" stroke-width="3.77953" stroke-linejoin="round" fill="#E7BA1E" font-family="Arial" font-weight="400" font-size="12" overflow="visible"/></svg>